<svg id="SvgjsSvg1309" width="360" height="360" xmlns="http://www.w3.org/2000/svg" version="1.1" xmlns:xlink="http://www.w3.org/1999/xlink" xmlns:svgjs="http://svgjs.com/svgjs"><defs id="SvgjsDefs1310"></defs><g id="SvgjsG1311"><svg xmlns="http://www.w3.org/2000/svg" fill="none" viewBox="0 0 3000 3000" width="360" height="360"><path fill="#26517d" d="M244.804 1849.28C121.029 2035.69 85.9215 2205.09 95.1421 2345.17C111.801 2598.25 387.233 2703.13 641.076 2703.13H2337.85C2480.56 2703.13 2606.06 2595.29 2660.06 2463.3C2780.09 2169.95 2992.98 1796.04 2854.56 1438.16C2674.57 972.831 2409.1 1058.67 2071.63 656.588C1734.16 254.507 1324.7 245.472 825.251 570.75C325.799 896.029 586.771 1334.25 244.804 1849.28Z" class="colorE7E8FF svgShape"></path><path fill="#ffffff" d="M2156.73 2000.97C2145.47 2267.82 2311.71 2559.97 2406.07 2685.95C2411 2692.53 2418.73 2696.26 2426.95 2696.26H2497.1C2513.02 2696.26 2525.34 2682.11 2523.25 2666.33C2460.74 2195.6 2287.51 2019.72 2186.06 1980.21C2171.66 1974.6 2157.38 1985.53 2156.73 2000.97Z" class="colorfff svgShape"></path><path fill="#020716" fill-rule="evenodd" d="M2182.85 1988.46C2175.03 1985.41 2166.01 1990.94 2165.57 2001.34C2160.02 2132.94 2198.26 2271.31 2249.94 2392.82C2301.59 2514.26 2366.37 2618.18 2413.16 2680.64C2416.35 2684.91 2421.42 2687.4 2426.95 2687.4H2497.1C2507.63 2687.4 2515.87 2678 2514.47 2667.49C2452.13 2197.99 2279.81 2026.22 2182.85 1988.46ZM2147.88 2000.59C2148.75 1980.11 2168.3 1963.79 2189.28 1971.96C2295.21 2013.22 2469.36 2193.21 2532.02 2665.16C2534.82 2686.21 2518.4 2705.11 2497.1 2705.11H2426.95C2416.04 2705.11 2405.65 2700.14 2398.99 2691.26C2351.42 2627.74 2285.9 2522.6 2233.65 2399.75C2181.43 2276.98 2142.18 2135.85 2147.88 2000.59Z" clip-rule="evenodd" class="color032068 svgShape"></path><path fill="#020716" d="M2687.87 1841.84C2469.51 2037.02 2425.78 2494.44 2426.41 2674.04C2426.47 2688.37 2438.22 2699.49 2452.55 2699.49H2517.51C2527.34 2699.49 2536.47 2693.88 2541.02 2685.16C2759.57 2266.18 2737.09 2006.02 2729.17 1860.97C2728 1839.66 2703.78 1827.62 2687.87 1841.84Z" class="color032068 svgShape"></path><path fill="#ffffff" d="M2860.28 2250.19C2688.12 2332.46 2552.45 2535.81 2489.77 2659.34C2481.06 2676.5 2493.81 2696.26 2513.06 2696.26H2590.27C2595.39 2696.26 2600.45 2694.76 2604.72 2691.93C2792.3 2567.46 2870.02 2382.5 2892.31 2275.23C2896.25 2256.24 2877.79 2241.82 2860.28 2250.19Z" class="colorfff svgShape"></path><path fill="#020716" fill-rule="evenodd" d="M2883.64 2273.43C2886.09 2261.64 2875.03 2252.95 2864.1 2258.17C2779.63 2298.54 2703.64 2368.88 2640.79 2444.93C2578 2520.91 2528.76 2602.06 2497.66 2663.34C2492.1 2674.3 2500.06 2687.4 2513.06 2687.4H2590.27C2593.69 2687.4 2597.04 2686.4 2599.82 2684.56L2604.72 2691.93L2599.82 2684.56C2784.97 2561.7 2861.69 2379.07 2883.64 2273.43ZM2856.47 2242.2C2880.55 2230.69 2906.42 2250.83 2900.97 2277.04C2878.34 2385.93 2799.63 2573.22 2609.61 2699.31C2603.87 2703.12 2597.1 2705.11 2590.27 2705.11H2513.06C2487.57 2705.11 2470.02 2678.7 2481.88 2655.33C2513.46 2593.09 2563.39 2510.8 2627.15 2433.65C2690.84 2356.58 2768.77 2284.11 2856.47 2242.2Z" clip-rule="evenodd" class="color032068 svgShape"></path><path fill="#020716" fill-rule="evenodd" d="M2249.78 2083.48C2285.99 2132.63 2320.1 2199.92 2350.69 2272.73C2371.41 2322.05 2390.59 2374.08 2407.77 2425.05L2424.86 2370.46L2441.76 2375.75L2417.31 2453.84C2433.01 2502.1 2446.81 2548.76 2458.3 2590.5C2468.92 2629.06 2477.58 2663.44 2483.94 2691.03L2466.69 2695.02C2460.61 2668.65 2452.4 2635.93 2442.34 2599.22L2381.22 2571.84L2388.46 2555.69L2436.18 2577.06C2425.61 2539.57 2413.32 2498.69 2399.6 2456.64C2380.87 2399.27 2359.49 2339.79 2336.14 2283.8L2253.65 2265.41L2257.5 2248.13L2327.63 2263.77C2299.07 2197.71 2267.95 2137.98 2235.52 2093.98L2249.78 2083.48Z" clip-rule="evenodd" class="color032068 svgShape"></path><path fill="#ffffff" fill-rule="evenodd" d="M2619.09 2143.96C2631.89 2098.06 2644.08 2056.52 2655.03 2022.23C2667.76 1982.41 2678.63 1953.01 2686.72 1937.77L2671.09 1929.47C2662.15 1946.3 2650.85 1977.15 2638.17 2016.84C2625.41 2056.76 2611.06 2106.26 2596.05 2160.84C2585.57 2198.92 2574.77 2239.5 2563.97 2281.06L2538.4 2220.99L2522.11 2227.92L2556.69 2309.18C2543.64 2359.9 2530.68 2411.56 2518.39 2461.47C2497.1 2547.88 2477.81 2629.06 2463.46 2691.03L2480.71 2695.02C2494.83 2634.04 2513.75 2554.43 2534.64 2469.53L2621.68 2422.92L2613.33 2407.31L2540.35 2446.39C2551.43 2401.63 2562.97 2355.76 2574.59 2310.68C2587.22 2261.67 2599.92 2213.6 2612.19 2168.92L2683.52 2125.37L2674.29 2110.26L2619.09 2143.96Z" clip-rule="evenodd" class="colorfff svgShape"></path><path fill="#020716" fill-rule="evenodd" d="M2757.87 2396.1C2779.38 2373.74 2800.41 2353.9 2820.18 2337.99L2809.08 2324.2C2783.06 2345.14 2755.29 2372.35 2727.41 2402.66C2709.34 2422.3 2691.18 2443.29 2673.36 2464.82L2677.95 2435.89L2660.47 2433.12L2651.09 2492.2C2627.62 2521.55 2605.07 2551.26 2584.51 2579.33C2552.41 2623.16 2525.12 2663.06 2506.68 2691.43L2521.52 2701.08C2539.26 2673.78 2565.38 2635.57 2596.15 2593.41H2659.47V2575.71H2609.18C2627.16 2551.47 2646.45 2526.3 2666.37 2501.44C2689.86 2472.14 2714.2 2443.3 2738.33 2416.94L2799.79 2407.71L2797.16 2390.2L2757.87 2396.1Z" clip-rule="evenodd" class="color032068 svgShape"></path><path fill="#ffffff" d="M1243.81 442.989C1243.81 366.053 1306.22 303.683 1383.21 303.683H2424.61C2501.6 303.683 2564.01 366.053 2564.01 442.99V2555.63C2564.01 2632.57 2501.6 2694.94 2424.61 2694.94H1383.21C1306.22 2694.94 1243.81 2632.57 1243.81 2555.63V442.989Z" class="colorfff svgShape"></path><path fill="#020716" fill-rule="evenodd" d="M1235.61 442.99C1235.61 361.527 1301.69 295.489 1383.21 295.489H2424.61C2506.13 295.489 2572.21 361.527 2572.21 442.99V2555.63C2572.21 2637.1 2506.13 2703.13 2424.61 2703.13H1383.21C1301.69 2703.13 1235.61 2637.1 1235.61 2555.63V442.99ZM1383.21 311.878C1310.75 311.878 1252.01 370.579 1252.01 442.99V2555.63C1252.01 2628.04 1310.75 2686.75 1383.21 2686.75H2424.61C2497.07 2686.75 2555.81 2628.04 2555.81 2555.63V442.99C2555.81 370.579 2497.07 311.878 2424.61 311.878H1383.21Z" clip-rule="evenodd" class="color032068 svgShape"></path><path fill="#26517d" d="M1633.55 2291.91C1633.55 2269.28 1651.91 2250.94 1674.55 2250.94H2145.44C2168.09 2250.94 2186.44 2269.28 2186.44 2291.91V2327.72C2186.44 2350.35 2168.09 2368.69 2145.44 2368.69H1674.55C1651.91 2368.69 1633.55 2350.35 1633.55 2327.72V2291.91Z" class="colorE7E8FF svgShape"></path><path fill="#020716" d="M1632.21 366.631L1598.62 303.681H2209.21L2168.39 371.668C2147.64 406.223 2110.27 427.366 2069.95 427.366H1733.51C1691.11 427.366 1652.16 404.015 1632.21 366.631Z" class="color032068 svgShape"></path><path fill="#020716" d="M2531.01 353.156H1276.82C1319.72 310.278 1360.71 302.307 1375.83 303.682H2431.99C2484.8 303.682 2520 336.665 2531.01 353.156zM2531.01 2645.46H1276.82C1319.72 2688.34 1360.71 2696.31 1375.83 2694.94H2431.99C2484.8 2694.94 2520 2661.96 2531.01 2645.46z" class="color032068 svgShape"></path><path fill="#26517d" fill-rule="evenodd" d="M2055.02 945.771H1479.47V929.382H2055.02V945.771zM2331.46 800.848H1479.47V784.459H2331.46V800.848z" clip-rule="evenodd" class="colorE7E8FF svgShape"></path><path fill="#020716" d="M1769.51 1993.01C1769.51 1970.38 1787.87 1952.04 1810.51 1952.04H1846.34C1868.98 1952.04 1887.34 1970.38 1887.34 1993.01V2028.81C1887.34 2051.44 1868.98 2069.79 1846.34 2069.79H1810.51C1787.87 2069.79 1769.51 2051.44 1769.51 2028.82V1993.01Z" class="color032068 svgShape"></path><path fill="#26517d" fill-rule="evenodd" d="M1978.84 1993.01C1978.84 1965.86 2000.87 1943.84 2028.04 1943.84H2063.87C2091.04 1943.84 2113.07 1965.86 2113.07 1993.01V2028.81C2113.07 2055.97 2091.04 2077.98 2063.87 2077.98H2028.04C2000.87 2077.98 1978.84 2055.97 1978.84 2028.81V1993.01ZM2028.04 1960.23C2009.92 1960.23 1995.24 1974.91 1995.24 1993.01V2028.81C1995.24 2046.92 2009.92 2061.59 2028.04 2061.59H2063.87C2081.98 2061.59 2096.67 2046.92 2096.67 2028.81V1993.01C2096.67 1974.91 2081.98 1960.23 2063.87 1960.23H2028.04Z" clip-rule="evenodd" class="colorE7E8FF svgShape"></path><path fill="#ffffff" d="M2177.38 1743.61V1159.7C2177.38 1137.07 2159.02 1118.73 2136.38 1118.73H1743.07C1732.2 1118.73 1721.77 1123.05 1714.08 1130.73L1636.5 1208.26C1628.81 1215.94 1624.49 1226.37 1624.49 1237.23V1743.61C1624.49 1766.24 1642.85 1784.59 1665.49 1784.59H2136.38C2159.02 1784.59 2177.38 1766.24 2177.38 1743.61Z" class="colorfff svgShape"></path><path fill="#020716" fill-rule="evenodd" d="M1708.28 1124.94C1717.51 1115.72 1730.02 1110.54 1743.07 1110.54H2136.38C2163.55 1110.54 2185.58 1132.55 2185.58 1159.7V1743.61C2185.58 1770.77 2163.55 1792.78 2136.38 1792.78H1665.49C1638.32 1792.78 1616.29 1770.77 1616.29 1743.61V1237.23C1616.29 1224.19 1621.47 1211.69 1630.7 1202.47L1708.28 1124.94ZM1743.07 1126.93C1734.37 1126.93 1726.03 1130.38 1719.88 1136.53L1642.3 1214.06C1636.14 1220.2 1632.69 1228.54 1632.69 1237.23V1743.61C1632.69 1761.72 1647.37 1776.39 1665.49 1776.39H2136.38C2154.49 1776.39 2169.18 1761.72 2169.18 1743.61V1159.7C2169.18 1141.6 2154.49 1126.93 2136.38 1126.93H1743.07Z" clip-rule="evenodd" class="color032068 svgShape"></path><path fill="#020716" d="M1626.85 1220.26L1728.45 1118.73V1195.68C1728.45 1209.26 1717.44 1220.26 1703.85 1220.26H1626.85Z" class="color032068 svgShape"></path><path fill="#020716" fill-rule="evenodd" d="M1863.13 1256.79H1740.27V1240.4H1863.13V1256.79ZM2052.15 1370.13H1740.27V1353.74H2052.15V1370.13ZM2052.15 1466.94H1740.27V1450.55H2052.15V1466.94ZM2052.15 1566.11H1740.27V1549.72H2052.15V1566.11ZM1995.45 1658.19H1740.27V1641.8H1995.45V1658.19Z" clip-rule="evenodd" class="color032068 svgShape"></path><path fill="#020716" d="M1326.99 2408.73L1360.83 2703.13H438.501L468.117 2408.73H1326.99Z" class="color032068 svgShape"></path><path fill="#ffffff" d="M802.358 1126.77L789.665 1236.78L793.896 1321.39L950.439 1338.32L1018.13 1253.7L1005.44 1126.77C1031.24 1112.03 1050.61 1071.61 1055.18 1008.31C1063.99 1005.49 1081.6 992.23 1081.6 961.768C1081.6 931.306 1062.3 920.869 1052.65 919.459C1038.91 816.76 985.635 779.84 895.437 779.84C808.962 779.84 762.078 836.398 747.849 919.459C737.813 918.049 717.74 924.536 717.74 961.768C717.74 999 735.772 1008.31 744.787 1008.31C753.058 1080.04 789.87 1116.78 802.358 1126.77Z" class="colorfff svgShape"></path><path fill="#020716" fill-rule="evenodd" d="M800.838 824.733C778.19 847.58 763.488 880.595 756.574 920.954L755.124 929.42L746.618 928.225C743.996 927.856 739.298 928.486 735.202 932.469C731.177 936.383 726.591 944.678 726.591 961.768C726.591 979.006 730.76 988.471 734.77 993.44C738.817 998.453 743.098 999.456 744.788 999.456H752.677L753.581 1007.29C761.527 1076.21 796.795 1110.99 807.887 1119.86L811.712 1122.92L798.542 1237.06L802.359 1313.41L946.561 1328.99L1008.97 1250.99L996.061 1121.94L1001.05 1119.09C1011.76 1112.97 1021.99 1100.99 1030.15 1082.22C1038.29 1063.51 1044.12 1038.62 1046.35 1007.67L1046.78 1001.7L1052.48 999.878C1057.68 998.213 1072.74 988.321 1072.74 961.768C1072.74 936.131 1057.11 929.057 1051.37 928.218L1044.76 927.252L1043.87 920.633C1037.18 870.557 1021.05 838.069 997.028 817.919C972.942 797.719 939.464 788.692 895.437 788.692C854.298 788.692 823.308 802.066 800.838 824.733ZM788.265 812.27C814.413 785.893 850.102 770.988 895.437 770.988C941.608 770.988 979.867 780.421 1008.4 804.355C1035.93 827.442 1053.06 862.884 1060.59 912.434C1073.88 917.329 1090.45 931.798 1090.45 961.768C1090.45 991.233 1075.64 1007.65 1063.59 1014.25C1060.99 1044.25 1055.03 1069.43 1046.39 1089.28C1038.29 1107.89 1027.64 1122.28 1014.79 1131.31L1027.3 1256.41L954.316 1347.64L785.433 1329.38L780.788 1236.49L793.022 1130.46C777.472 1116.57 746.004 1080.29 736.833 1015.84C731.429 1014.08 725.771 1010.48 720.995 1004.56C713.736 995.567 708.888 981.762 708.888 961.768C708.888 941.627 714.339 928.062 722.86 919.777C728.358 914.431 734.662 911.756 740.439 910.825C748.253 871.163 763.753 836.997 788.265 812.27Z" clip-rule="evenodd" class="color032068 svgShape"></path><path fill="#020716" d="M721.972 847.535C715.203 888.151 721.973 944.845 738.896 965.999L772.743 894.074C782.897 900.843 830.565 902.536 848.899 902.536C919.978 899.151 971.595 858.817 988.519 839.072C991.903 869.535 1037.88 950.486 1056.21 987.154C1078.78 953.306 1093.44 864.458 1073.14 779.84C1052.83 695.222 996.98 690.991 963.133 699.453C870.054 627.528 764.281 635.99 713.51 707.915C672.894 765.455 696.587 824.97 721.972 847.535Z" class="color032068 svgShape"></path><path fill="#ffffff" d="M527.96 2498.2C505.95 2477.41 495.606 2458.97 493.186 2452.35C466.006 2469.19 403.001 2480.8 383.499 2510.27C359.122 2547.11 409.36 2656.86 428.389 2667.02C447.419 2677.18 519.178 2659.07 537.442 2642.48C552.053 2629.22 539.147 2592.91 530.256 2578.44C539.859 2571.03 567.152 2567.48 565.561 2549.32C563.574 2526.63 555.473 2524.18 527.96 2498.2Z" class="colorfff svgShape"></path><path fill="#020716" fill-rule="evenodd" d="M497.768 2439.1L501.5 2449.31C503.333 2454.33 512.748 2471.66 534.037 2491.76C539.158 2496.6 543.563 2500.58 547.454 2504.09C548.728 2505.24 549.947 2506.34 551.118 2507.41C555.763 2511.63 559.803 2515.42 563.067 2519.25C570.207 2527.62 573.259 2535.76 574.379 2548.55C575.687 2563.49 564.478 2571.44 556.201 2575.76C552.669 2577.6 548.841 2579.22 545.584 2580.59C544.867 2580.89 544.177 2581.18 543.524 2581.46C543.064 2581.66 542.624 2581.84 542.205 2582.03C545.874 2589.75 549.401 2599.48 551.342 2609.18C552.708 2616 553.384 2623.26 552.513 2630.04C551.641 2636.83 549.107 2643.85 543.393 2649.04C537.626 2654.27 528.512 2658.99 518.686 2662.95C508.619 2667.01 496.907 2670.64 485.235 2673.4C473.582 2676.15 461.721 2678.08 451.371 2678.64C441.54 2679.18 431.304 2678.61 424.22 2674.83C420.108 2672.63 416.294 2668.53 413.011 2664.31C409.525 2659.83 405.865 2654.18 402.229 2647.8C394.947 2635.02 387.435 2618.73 381.331 2601.62C375.239 2584.56 370.421 2566.34 368.747 2549.77C367.109 2533.56 368.293 2517.21 376.118 2505.39C382.007 2496.49 390.827 2489.42 400.457 2483.59C410.139 2477.72 421.209 2472.77 432.157 2468.36C438.496 2465.81 445.173 2463.3 451.551 2460.89C455.946 2459.24 460.199 2457.64 464.104 2456.11C474.112 2452.21 482.479 2448.57 488.524 2444.82L497.768 2439.1ZM409.629 2498.73C401.111 2503.89 394.743 2509.32 390.881 2515.16C386.517 2521.75 384.84 2532.94 386.36 2547.99C387.844 2562.67 392.204 2579.43 398.003 2595.67C403.79 2611.88 410.882 2627.23 417.61 2639.04C420.979 2644.95 424.175 2649.83 426.984 2653.44C429.995 2657.31 431.914 2658.87 432.56 2659.21C434.99 2660.51 440.859 2661.49 450.407 2660.97C459.434 2660.47 470.222 2658.75 481.171 2656.17C492.101 2653.59 502.942 2650.21 512.061 2646.53C521.422 2642.76 528.127 2638.99 531.492 2635.93C533.083 2634.48 534.415 2631.99 534.954 2627.79C535.495 2623.58 535.129 2618.37 533.983 2612.65C531.682 2601.16 526.626 2589.44 522.714 2583.08L518.549 2576.3L524.847 2571.44C528.281 2568.78 532.834 2566.77 536.571 2565.18C537.389 2564.83 538.193 2564.49 538.983 2564.16C542.201 2562.8 545.189 2561.54 548.011 2560.06C555.384 2556.22 557.026 2553.32 556.744 2550.1C555.876 2540.19 553.884 2535.76 549.599 2530.74C547.149 2527.87 543.881 2524.76 539.207 2520.51C538.103 2519.5 536.929 2518.44 535.683 2517.32C531.77 2513.78 527.161 2509.62 521.882 2504.63C505.404 2489.07 494.948 2474.52 489.297 2464.55C483.532 2467.39 477.114 2470.04 470.543 2472.6C466.145 2474.32 461.764 2475.97 457.358 2477.63C451.249 2479.92 445.09 2482.24 438.77 2484.79C428.131 2489.07 418.094 2493.6 409.629 2498.73Z" clip-rule="evenodd" class="color032068 svgShape"></path><path fill="#ffffff" fill-rule="evenodd" d="M493.367 1300.34C490.611 1301.53 487.834 1302.91 485.039 1304.47C265.033 1439.86 133.875 1888.33 138.106 1989.87C142.337 2091.42 307.342 2531.43 349.651 2535.66C385.015 2539.2 491.325 2504.3 525.269 2470.52C632.263 2497.58 799.298 2497.58 920.821 2497.58C1128.14 2497.58 1331.22 2480.66 1365.07 2425.66C1376.42 2407.2 1363.65 2342.45 1352.37 2302.96C1377.76 2350.91 1459.84 2429.04 1585.07 2357.96C1741.61 2269.11 1669.69 1998.34 1538.53 1596.4C1433.6 1274.85 1161.98 1200.11 1039.29 1202.93C1039.29 1231.14 1013.05 1287.55 908.128 1287.55C803.202 1287.55 779.791 1231.14 776.97 1202.93C726.2 1204.34 598.427 1225.78 493.501 1300.24C493.456 1300.27 493.412 1300.31 493.367 1300.34Z" clip-rule="evenodd" class="colorfff svgShape"></path><path fill="#020716" fill-rule="evenodd" d="M784.959 1193.85L785.778 1202.05C787.02 1214.46 792.843 1233.42 810.226 1249.28C827.523 1265.06 857.275 1278.7 908.128 1278.7C958.999 1278.7 989.488 1265.05 1007.15 1249.22C1024.92 1233.3 1030.43 1214.56 1030.43 1202.93V1194.28L1039.08 1194.08C1164.6 1191.19 1440.5 1267.46 1546.95 1593.66C1612.47 1794.46 1663.55 1963.49 1678.48 2093.58C1693.37 2223.3 1672.69 2318.41 1589.44 2365.66C1524.62 2402.45 1469.91 2401.05 1427.83 2383.25C1404.84 2373.53 1385.93 2359.04 1371.34 2343.75C1373.17 2352.88 1374.77 2362.11 1375.98 2371C1377.6 2382.96 1378.55 2394.53 1378.31 2404.46C1378.08 2413.99 1376.75 2423.55 1372.6 2430.3C1362.42 2446.84 1340.75 2459.04 1313.41 2468.47C1285.59 2478.06 1249.92 2485.42 1209.2 2491.01C1127.7 2502.2 1024.64 2506.43 920.821 2506.43H919.992C800.717 2506.43 635.987 2506.43 527.805 2480.26C518.616 2488.38 506.239 2496.18 492.572 2503.3C476.843 2511.49 458.877 2519.07 440.953 2525.43C423.027 2531.79 404.989 2536.99 389.085 2540.38C373.419 2543.72 359.034 2545.49 348.77 2544.47C342.922 2543.88 337.924 2539.98 334.138 2536.25C330.015 2532.19 325.698 2526.67 321.262 2520.13C312.359 2507 302.219 2488.65 291.409 2466.8C269.753 2423.02 244.917 2364.17 221.33 2302.42C197.734 2240.64 175.317 2175.78 158.519 2119.95C141.83 2064.47 130.373 2016.9 129.262 1990.24C128.146 1963.45 135.86 1915.29 151.023 1856.76C166.267 1797.91 189.277 1727.7 219.328 1656.43C279.212 1514.4 367.895 1366.17 480.4 1296.93L480.555 1296.84L480.714 1296.75C483.464 1295.21 486.217 1293.82 488.97 1292.6C595.599 1217.19 724.844 1195.52 776.725 1194.08L784.959 1193.85ZM1047.48 1211.71C1045.23 1227.21 1036.96 1246.28 1018.96 1262.41C997.274 1281.84 962.183 1296.4 908.128 1296.4C854.055 1296.4 819.639 1281.83 798.294 1262.35C780.515 1246.13 772.504 1227.14 769.434 1212.12C715.443 1215.34 596.77 1237.84 498.702 1307.4L498.672 1307.42L497.835 1308.05L496.876 1308.47C494.464 1309.51 492.011 1310.72 489.521 1312.11C382.092 1378.3 295.249 1521.93 235.64 1663.3C205.93 1733.77 183.193 1803.17 168.16 1861.2C153.045 1919.55 145.951 1965.53 146.95 1989.51C147.955 2013.61 158.711 2059.13 175.472 2114.85C192.125 2170.2 214.396 2234.65 237.868 2296.1C261.35 2357.57 285.963 2415.86 307.277 2458.95C317.952 2480.53 327.677 2498.05 335.913 2510.19C340.046 2516.28 343.616 2520.74 346.56 2523.64C349.35 2526.39 350.671 2526.82 350.661 2526.86C350.66 2526.86 350.654 2526.86 350.642 2526.86C358.07 2527.58 370.19 2526.31 385.39 2523.07C400.426 2519.86 417.717 2514.89 435.033 2508.74C452.35 2502.6 469.535 2495.34 484.392 2487.6C499.373 2479.79 511.469 2471.76 519.025 2464.24L522.579 2460.71L527.44 2461.94C633.117 2488.67 798.855 2488.73 920.821 2488.73C1024.32 2488.73 1126.46 2484.5 1206.79 2473.47C1246.98 2467.96 1281.38 2460.78 1307.64 2451.73C1334.38 2442.51 1350.79 2431.97 1357.53 2421.02C1359.06 2418.53 1360.39 2413.08 1360.61 2404.04C1360.82 2395.41 1360 2384.86 1358.44 2373.39C1355.32 2350.47 1349.42 2324.83 1343.86 2305.39L1360.19 2298.82C1372.14 2321.38 1397.62 2351.25 1434.73 2366.94C1471.34 2382.43 1520.28 2384.55 1580.7 2350.26C1653.99 2308.67 1675.62 2223.96 1660.89 2095.6C1646.21 1967.6 1595.75 1800.28 1530.12 1599.15C1428.95 1289.11 1170.86 1212.31 1047.48 1211.71Z" clip-rule="evenodd" class="color032068 svgShape"></path><path fill="#ffffff" d="M676.949 1381.8C676.992 1367.13 688.915 1355.28 703.581 1355.32L1071.98 1356.38C1086.65 1356.42 1098.5 1368.34 1098.46 1383.01L1097.02 1884.67C1096.97 1899.33 1085.05 1911.19 1070.38 1911.15L701.983 1910.08C687.317 1910.04 675.462 1898.12 675.504 1883.45L676.949 1381.8Z" class="colorfff svgShape"></path><path fill="#020716" fill-rule="evenodd" d="M668.098 1381.77C668.154 1362.22 684.052 1346.41 703.606 1346.47L1072.01 1347.53C1091.56 1347.58 1107.37 1363.48 1107.31 1383.04L1105.87 1884.69C1105.81 1904.25 1089.91 1920.05 1070.36 1920L701.957 1918.94C682.403 1918.88 666.596 1902.98 666.653 1883.43L668.098 1381.77ZM703.555 1364.17C693.778 1364.14 685.829 1372.04 685.801 1381.82L684.356 1883.48C684.328 1893.26 692.231 1901.2 702.008 1901.23L1070.41 1902.29C1080.19 1902.32 1088.14 1894.42 1088.16 1884.64L1089.61 1382.98C1089.64 1373.21 1081.73 1365.26 1071.96 1365.23L703.555 1364.17Z" clip-rule="evenodd" class="color032068 svgShape"></path><path fill="#020716" d="M1352.37 2307.19L1128.14 1913.72C1145.06 2057.57 1280.45 2298.73 1369.3 2396.04 1369.3 2375.73 1356.6 2321.29 1352.37 2307.19zM1487.76 1943.33C1425.3 1885.03 1293.15 1769.35 1256.73 1765.72 1256.17 1765.71 1255.62 1765.68 1255.06 1765.64 1255.59 1765.64 1256.15 1765.67 1256.73 1765.72 1273.35 1766.07 1293.14 1750.73 1293.14 1685.25 1335.45 1799.48 1458.15 1854.49 1487.76 1943.33z" class="color032068 svgShape"></path><path fill="#ffffff" d="M1132.37 1867.18L1242.37 1781.34C1228.89 1769.52 1197.89 1731.69 1181.71 1674.93C1165.54 1618.18 1123.76 1596.11 1104.88 1592.17V1647.35C1090.06 1634.21 1054.74 1611.09 1032.1 1623.7C1003.79 1639.46 1015.92 1765.58 1019.97 1781.34C1024.01 1797.11 1076.58 1820.75 1096.8 1824.7C1112.97 1827.85 1119.67 1846.02 1132.37 1867.18Z" class="colorfff svgShape"></path><path fill="#020716" fill-rule="evenodd" d="M1096.03 1581.28L1106.69 1583.51C1128.43 1588.05 1173.06 1612.26 1190.23 1672.51C1205.93 1727.6 1235.99 1763.97 1248.21 1774.69L1256.25 1781.74L1129.92 1880.31L1124.78 1871.73C1122.23 1867.49 1119.9 1863.34 1117.77 1859.52C1117.17 1858.45 1116.59 1857.41 1116.02 1856.41C1113.36 1851.69 1111 1847.66 1108.63 1844.25C1103.87 1837.42 1099.87 1834.31 1095.1 1833.38C1083.83 1831.19 1064.79 1823.88 1048.25 1815.31C1039.9 1810.99 1031.81 1806.16 1025.42 1801.22C1022.23 1798.75 1019.27 1796.11 1016.89 1793.35C1014.59 1790.67 1012.37 1787.37 1011.39 1783.54C1010.18 1778.81 1008.62 1767.28 1007.36 1753.06C1006.08 1738.57 1005.05 1720.57 1005.05 1702.52C1005.05 1684.55 1006.07 1666.17 1009 1651.07C1010.47 1643.53 1012.48 1636.46 1015.29 1630.55C1018.05 1624.75 1021.99 1619.2 1027.79 1615.97C1042.88 1607.56 1060.81 1611.63 1074.94 1617.74C1082.5 1621.02 1089.72 1625.19 1096.03 1629.43V1581.28ZM1113.74 1604.38V1667.02L1099.01 1653.97C1092.12 1647.86 1080.36 1639.38 1067.91 1633.99C1055.02 1628.41 1043.96 1627.23 1036.41 1631.43C1035.13 1632.14 1033.26 1633.98 1031.28 1638.15C1029.35 1642.22 1027.69 1647.71 1026.38 1654.46C1023.76 1667.93 1022.75 1685.02 1022.75 1702.52C1022.75 1719.95 1023.75 1737.41 1024.99 1751.5C1026.26 1765.85 1027.73 1776 1028.54 1779.14C1028.54 1779.14 1028.56 1779.21 1028.61 1779.34C1028.67 1779.47 1028.76 1779.66 1028.9 1779.9C1029.19 1780.38 1029.64 1781.02 1030.31 1781.79C1031.66 1783.36 1033.63 1785.19 1036.25 1787.21C1041.48 1791.26 1048.56 1795.54 1056.39 1799.59C1072.2 1807.78 1089.55 1814.26 1098.49 1816.01C1109.9 1818.23 1117.34 1825.79 1123.15 1834.13C1126.06 1838.29 1128.77 1842.97 1131.44 1847.71C1132.05 1848.8 1132.67 1849.9 1133.28 1851C1133.83 1851.97 1134.38 1852.96 1134.94 1853.94L1228.98 1780.56C1212.69 1763.04 1187.39 1727.14 1173.2 1677.36C1160.77 1633.74 1132.39 1612.48 1113.74 1604.38Z" clip-rule="evenodd" class="color032068 svgShape"></path><path fill="#020716" d="M176.184 2150.65C243.878 2018.64 210.031 1836.15 184.646 1761.41 171.953 1809.36 144.876 1917.1 138.106 1964.49 131.337 2011.87 160.671 2108.34 176.184 2150.65zM1348.14 2294.5C1449.68 2220.03 1604.82 2226.8 1669.69 2239.5 1662.64 2270.52 1644.3 2341.69 1546.99 2379.12 1436.99 2421.43 1372.12 2338.22 1348.14 2294.5zM485.041 2040.64C488.426 1976.34 528.76 1822.05 548.504 1752.94 518.888 1829.1 442.732 1956.03 442.732 2040.64 442.732 2108.34 504.785 2339.63 535.812 2446.81 517.478 2338.22 481.656 2104.95 485.041 2040.64zM898.668 1165.72C844.513 1165.72 811.23 1138.93 801.358 1127.64L797.127 1169.95C891.899 1224.11 977.645 1192.52 1008.67 1169.95L1004.44 1127.64C991.748 1138.93 952.824 1165.72 898.668 1165.72z" class="color032068 svgShape"></path></svg></g></svg>